<?xml version="1.0" encoding="utf-8"?>
<!-- Generator: Adobe Illustrator 21.0.0, SVG Export Plug-In . SVG Version: 6.00 Build 0)  -->
<svg version="1.1" id="Слой_1" xmlns="http://www.w3.org/2000/svg" xmlns:xlink="http://www.w3.org/1999/xlink" x="0px" y="0px"
	 viewBox="0 0 3500 2000" style="enable-background:new 0 0 3500 2000;" xml:space="preserve">
<style type="text/css">
	.st0{fill:#E6F6FA;}
	.st1{fill:#FFFFFF;}
	.st2{fill:#63ACC2;}
	.st3{opacity:0.7;fill:#9EC8FF;enable-background:new    ;}
	.st4{opacity:0.8;}
	.st5{fill:#9EC8FF;}
	.st6{fill:#F37168;}
	.st7{opacity:0.7;}
	.st8{fill:#9CD499;}
	.st9{fill:#74B570;}
	.st10{fill:#232E4F;}
	.st11{fill:#FACF50;}
	.st12{fill:#E0B03E;}
	.st13{fill:#3E6BAB;}
	.st14{fill:#1C447A;}
	.st15{fill:#BFE6F2;}
	.st16{fill:#2E5B9A;}
	.st17{fill:#D54A41;}
	.st18{fill:#993341;}
	.st19{fill:#DBE5EB;}
	.st20{fill:#F09959;}
	.st21{fill:#E38540;}
	.st22{fill:#3A384D;}
	.st23{fill:#303C60;}
	.st24{fill:#394873;}
	.st25{fill:#F2F2F2;}
	.st26{fill:#0F2D5C;}
	.st27{fill:#0E3A82;}
	.st28{fill:#368DA8;}
	.st29{fill:#153F9C;}
</style>
<g>
	<path class="st0" d="M501,1748.7c-660.4-484.4-300.5-786-18.5-842.1c281.9-56.2,204.9-405.2,407.9-590.1
		c132-120.2,533.9-224.1,998.8,47c464.9,271,1039.6,256.1,1256.7,397.7c275.9,179.9,287.9,599.6,100.9,797.1
		c-204.9,216.4-286.9,209.3-286.9,209.3L501,1748.7z"/>
	<g>
		<rect x="396" y="272" class="st1" width="760" height="1088"/>
		<g>
			<path class="st2" d="M1161.1,1365H391V267h770L1161.1,1365L1161.1,1365z M401,1355h750V277H401V1355z"/>
		</g>
		<path class="st3" d="M1079.4,562.9H611.8c-5,0-9.1-4.1-9.1-9.1v-1.2c0-5,4.1-9.1,9.1-9.1h467.6c5,0,9.1,4.1,9.1,9.1v1.2
			C1088.5,558.8,1084.4,562.9,1079.4,562.9z"/>
		<path class="st3" d="M1079.4,597.6H611.8c-5,0-9.1-4.1-9.1-9.1v-1.2c0-5,4.1-9.1,9.1-9.1h467.6c5,0,9.1,4.1,9.1,9.1v1.2
			C1088.5,593.5,1084.4,597.6,1079.4,597.6z"/>
		<path class="st3" d="M1079.4,698.2H611.8c-5,0-9.1-4.1-9.1-9.1v-1.2c0-5,4.1-9.1,9.1-9.1h467.6c5,0,9.1,4.1,9.1,9.1v1.2
			C1088.5,694.1,1084.4,698.2,1079.4,698.2z"/>
		<path class="st3" d="M1079.4,732.9H611.8c-5,0-9.1-4.1-9.1-9.1v-1.2c0-5,4.1-9.1,9.1-9.1h467.6c5,0,9.1,4.1,9.1,9.1v1.2
			C1088.5,728.8,1084.4,732.9,1079.4,732.9z"/>
		<path class="st3" d="M1079.4,857.4H611.8c-5,0-9.1-4.1-9.1-9.1v-1.2c0-5,4.1-9.1,9.1-9.1h467.6c5,0,9.1,4.1,9.1,9.1v1.2
			C1088.5,853.3,1084.4,857.4,1079.4,857.4z"/>
		<path class="st3" d="M1079.4,892.2H611.8c-5,0-9.1-4.1-9.1-9.1v-1.2c0-5,4.1-9.1,9.1-9.1h467.6c5,0,9.1,4.1,9.1,9.1v1.2
			C1088.5,888.1,1084.4,892.2,1079.4,892.2z"/>
		<path class="st3" d="M1079.4,981.8H611.8c-5,0-9.1-4.1-9.1-9.1v-1.2c0-5,4.1-9.1,9.1-9.1h467.6c5,0,9.1,4.1,9.1,9.1v1.2
			C1088.5,977.7,1084.4,981.8,1079.4,981.8z"/>
		<path class="st3" d="M1079.4,1016.5H611.8c-5,0-9.1-4.1-9.1-9.1v-1.2c0-5,4.1-9.1,9.1-9.1h467.6c5,0,9.1,4.1,9.1,9.1v1.2
			C1088.5,1012.5,1084.4,1016.5,1079.4,1016.5z"/>
		<g>
			<g class="st4">
				<path class="st5" d="M512.1,610.5h-31c-13.5,0-24.4-11-24.4-24.4v-31c0-13.5,11-24.4,24.4-24.4h31c13.5,0,24.4,11,24.4,24.4v31
					C536.5,599.5,525.6,610.5,512.1,610.5z M481.1,544.6c-5.8,0-10.4,4.7-10.4,10.4v31c0,5.8,4.7,10.4,10.4,10.4h31
					c5.8,0,10.4-4.7,10.4-10.4v-31c0-5.8-4.7-10.4-10.4-10.4H481.1z"/>
			</g>
			<g class="st4">
				<path class="st5" d="M512.1,742.2h-31c-13.5,0-24.4-11-24.4-24.4v-31c0-13.5,11-24.4,24.4-24.4h31c13.5,0,24.4,11,24.4,24.4v31
					C536.5,731.3,525.6,742.2,512.1,742.2z M481.1,676.4c-5.8,0-10.4,4.7-10.4,10.4v31c0,5.8,4.7,10.4,10.4,10.4h31
					c5.8,0,10.4-4.7,10.4-10.4v-31c0-5.8-4.7-10.4-10.4-10.4H481.1z"/>
			</g>
			<g>
				<path class="st6" d="M498.5,723.8c-0.1,0-0.2,0-0.3,0c-1.8-0.1-3.4-0.9-4.5-2.3l-22.3-29.1c-2-2.6-1.5-6.4,1.1-8.4
					s6.4-1.5,8.4,1.1l18,23.4l49.4-53c2.3-2.4,6.1-2.6,8.5-0.3s2.6,6.1,0.3,8.5l-54.3,58.1C501.8,723.1,500.2,723.8,498.5,723.8z"/>
			</g>
			<g>
				<path class="st5" d="M512.1,897.5h-31c-12.9,0-23.4-10.5-23.4-23.4v-31c0-12.9,10.5-23.4,23.4-23.4h31
					c12.9,0,23.4,10.5,23.4,23.4v31C535.5,887,525,897.5,512.1,897.5z M481.1,831.6c-6.3,0-11.4,5.1-11.4,11.4v31
					c0,6.3,5.1,11.4,11.4,11.4h31c6.3,0,11.4-5.1,11.4-11.4v-31c0-6.3-5.1-11.4-11.4-11.4H481.1z"/>
			</g>
			<g class="st4">
				<path class="st5" d="M512.1,1030.2h-31c-13.5,0-24.4-11-24.4-24.4v-31c0-13.5,11-24.4,24.4-24.4h31c13.5,0,24.4,11,24.4,24.4v31
					C536.5,1019.3,525.6,1030.2,512.1,1030.2z M481.1,964.4c-5.8,0-10.4,4.7-10.4,10.4v31c0,5.8,4.7,10.4,10.4,10.4h31
					c5.8,0,10.4-4.7,10.4-10.4v-31c0-5.8-4.7-10.4-10.4-10.4H481.1z"/>
			</g>
		</g>
		<g class="st7">
			<path class="st2" d="M682.4,356.4l-37.2,86h-19.7l-37.1-86H610l26.2,61.4l26.5-61.4H682.4z"/>
			<path class="st2" d="M712.2,438.1c-7.2-3.8-12.8-9.1-16.8-15.9c-4.1-6.8-6.1-14.3-6.1-22.8c0-8.4,2-16,6.1-22.8
				s9.7-12.1,16.8-15.9c7.2-3.8,15.2-5.8,24.1-5.8c8.9,0,16.9,1.9,24.1,5.8c7.1,3.8,12.7,9.1,16.8,15.9s6.1,14.4,6.1,22.8
				s-2,16-6.1,22.8s-9.7,12.1-16.8,15.9s-15.1,5.8-24.1,5.8C727.4,443.9,719.4,441.9,712.2,438.1z M750.1,423.4
				c4.1-2.3,7.3-5.6,9.6-9.8c2.3-4.2,3.5-8.9,3.5-14.2c0-5.3-1.2-10.1-3.5-14.2c-2.3-4.2-5.5-7.4-9.6-9.8c-4.1-2.3-8.7-3.5-13.8-3.5
				s-9.7,1.2-13.8,3.5s-7.3,5.6-9.6,9.8c-2.3,4.2-3.5,8.9-3.5,14.2c0,5.3,1.2,10.1,3.5,14.2c2.3,4.2,5.5,7.4,9.6,9.8
				c4.1,2.3,8.7,3.5,13.8,3.5C741.4,426.9,746,425.7,750.1,423.4z"/>
			<path class="st2" d="M821.1,372.6h-27.5v-16.2h74.9v16.2H841v69.8h-19.9V372.6z"/>
			<path class="st2" d="M951.9,426.4v16h-66.6v-86h65v16h-45.2V391H945v15.5h-39.9v19.9H951.9z"/>
		</g>
	</g>
	<path class="st8" d="M384,1765.7c0,0-209.1-222.4-128.6-238c80.6-15.7,165.2,186.1,172.9,165.2S372,1446.4,408,1441.2
		s96.1,256.2,96.1,256.2s8.6-136.3,74.2-164.9C644,1504,562.6,1761,562.6,1761L384,1765.7z"/>
	<g>
		<path class="st8" d="M2284.1,1498.2c187.8-132.4,238-196.4,288.6-405.3s283.6-461.3,183.4-418.6
			c-100.2,42.7-273.4,227-266.4,405.9s-19,230.4-48.5,271.5s-155.9,132.1-155.9,132.1L2284.1,1498.2z"/>
		<path class="st9" d="M2400.8,1408.8c0.7-0.6,1.3-1.1,2-1.7c11.3-14.9,68.8-92.1,82.2-131.7c14.9-43.9,3-157.6,49.3-240
			c46.3-82.5,67.9-160.4,89.9-219.6c29.1-78.1,113.3-137.3,156.4-141.1c-0.2-0.8-0.4-1.5-0.8-2.1l-10.6-2.5
			c-3.5,0.7-7.8,2.1-13.1,4.3c-100.2,42.7-273.4,227-266.4,405.9s-19,230.4-48.5,271.5c-8,11.1-23,25.8-40.6,41.4L2400.8,1408.8z"/>
	</g>
	<g>
		<path class="st8" d="M2535.6,1227.7c54.2-213.8,630-442.2,577.7-375.6S2922,1079.3,2764.8,1140s-217.1,148.8-255.2,256.5
			C2471.5,1504.1,2481.5,1441.5,2535.6,1227.7z"/>
		<g>
			<path class="st9" d="M2442.6,1483.2c-4.2,0-7.3-0.9-7.6-0.9c-1.6-0.5-2.5-2.1-2-3.7s2.1-2.5,3.7-2c0.1,0,8.9,2.5,15.5-1.8
				c4-2.6,6.6-7.2,7.5-13.7c6.4-42,20.7-74,33.3-102.2c7.7-17.3,14.4-32.3,18.1-46.9c5.3-21,20.7-58,48.1-98.9
				c33.4-49.9,76.9-93.7,125.9-126.6c57.6-38.7,98.4-60.7,154.9-91.1c55.8-30,125.3-67.4,241.3-136.8c1.4-0.9,3.3-0.4,4.1,1
				c0.9,1.4,0.4,3.3-1,4.1c-116.2,69.5-185.7,106.9-241.6,137c-56.3,30.3-97.1,52.2-154.4,90.8c-114.1,76.8-162.5,186.3-171.5,222
				c-3.8,15.1-10.9,31-18.5,47.9c-12.5,27.9-26.6,59.5-32.9,100.7c-1.3,8.3-4.7,14.4-10.3,17.9
				C2451.2,1482.5,2446.5,1483.2,2442.6,1483.2z"/>
		</g>
		<g>
			<path class="st9" d="M2849.6,1001.5c-5.8,0-9.1-0.2-9.5-0.3c-1.7-0.1-2.9-1.6-2.8-3.2s1.6-2.9,3.2-2.8
				c0.8,0.1,82.1,5.4,157.9-41.8c1.4-0.9,3.3-0.4,4.1,1c0.9,1.4,0.4,3.3-1,4.1c-40.5,25.2-82.2,35.5-110.1,39.7
				C2873.2,1001,2858.5,1001.5,2849.6,1001.5z"/>
		</g>
		<g>
			<path class="st9" d="M2829.6,1064.9c-51.8,0-82.9-10-83.4-10.1c-1.6-0.5-2.4-2.2-1.9-3.8s2.2-2.4,3.8-1.9
				c0.6,0.2,59,18.8,149.4,4.3c1.6-0.3,3.2,0.8,3.4,2.5c0.3,1.6-0.8,3.2-2.5,3.4C2872.8,1063.4,2849.7,1064.9,2829.6,1064.9z"/>
		</g>
	</g>
	<path class="st8" d="M896.5,1761c0,0-191.7-196-165.8-233.1c44.6-63.8,234.2,157.2,234.2,157.2S699.2,1090,748,961.4
		c48.8-128.7,247.7,285.1,247.7,285.1s190.9-921.8,275.6-910.1c84.7,11.7,41.2,480.5,41.2,480.5L1889.2,608
		c0,0,250.9-241.7,310.9-204.9c60,36.9-106.3,264-81.1,254.4c25.1-9.5,283.9-291,360.5-230.3s-306.6,315.6-306.6,315.6l256.7,864.3
		c0,0,206.6-448,437.4-401.3c118.3,23.9-243,352.2-243,352.2s226.3-165.1,315.4-116.8s-247.3,172-203.2,190.2s-95,108.2-95,108.2
		s109.8-67.1,158.4-39.3c48.6,27.8,32.5,65.5,32.5,65.5L896.5,1761z"/>
	<path class="st8" d="M3067,1761c0,0,13-258.2,65-247.6s-12,193.5,0,184s118.4-307.2,179.2-256.3c60.8,50.9-122.1,229.9-122.1,229.9
		s93.3-64.2,122.1-39.6S3216,1761,3216,1761H3067z"/>
	<g>
		<g>
			<path class="st8" d="M924.5,1543.5c-0.2-5.1-126.4-251-242.5-224.9s-132.2,61.4-212.4,77.5c-57.2,11.5-104.9,9.9-104.9,9.9
				s55.9,62.2,165.5,55.4c77.5-4.8,155.3-73.5,211.6-84.1c56.3-10.7,125.9,92.6,125.9,92.6l31.1,55.6L924.5,1543.5z"/>
			<g>
				<path class="st9" d="M888.1,1472.2c-0.9,0-1.8-0.4-2.4-1.2c-65.2-87.7-119-132.8-169.3-141.9c-44.1-8-79.8,13-117.5,35.2
					c-9.5,5.6-19.4,11.4-29.4,16.7c-87.6,46.4-139.7,40.8-141.9,40.5c-1.6-0.2-2.8-1.7-2.6-3.3c0.2-1.6,1.7-2.8,3.3-2.6
					c0.5,0.1,52.6,5.6,138.3-39.9c9.9-5.2,19.7-11,29.2-16.6c38.7-22.8,75.3-44.3,121.7-35.9c51.8,9.4,106.8,55.2,173,144.2
					c1,1.3,0.7,3.2-0.6,4.2C889.4,1472,888.7,1472.2,888.1,1472.2z"/>
			</g>
		</g>
		<g>
			<path class="st8" d="M925.7,1546.8C836.1,1261.5,713.1,1133,532.1,1062S333.3,961.4,333.3,961.4s108.3,228.6,217.2,281.4
				s246.4,71,278.7,107.3s78.7,181,78.7,181L928,1553L925.7,1546.8z"/>
			<g>
				<path class="st9" d="M921.1,1532.6c-1.3,0-2.5-0.9-2.9-2.2c-0.1-0.5-12.7-47.1-40.8-106.7c-25.9-54.9-70.6-132.3-136.6-189.2
					c-65.3-56.4-123.5-81.7-179.8-106.2c-53.3-23.2-103.6-45.1-152.9-91.5c-1.2-1.1-1.3-3-0.1-4.2c1.1-1.2,3-1.3,4.2-0.1
					c48.5,45.6,98.4,67.3,151.2,90.3c56.7,24.7,115.3,50.2,181.3,107.2c66.8,57.7,112,135.9,138.2,191.3
					c28.3,60,41,107.1,41.1,107.6c0.4,1.6-0.5,3.2-2.1,3.7C921.6,1532.5,921.3,1532.6,921.1,1532.6z"/>
			</g>
			<g>
				<path class="st9" d="M627.4,1158c-0.3,0-0.6,0-0.9-0.1c-0.7-0.2-68.4-21-147-8.1c-1.6,0.3-3.2-0.8-3.4-2.5
					c-0.3-1.6,0.8-3.2,2.5-3.4c80.1-13.2,149.1,8,149.8,8.3c1.6,0.5,2.5,2.2,2,3.8C629.9,1157.2,628.7,1158,627.4,1158z"/>
			</g>
			<g>
				<path class="st9" d="M757.9,1248.5c-0.7,0-1.3-0.2-1.9-0.7c-62.3-50.6-113.9-50.3-224.7-44.9c-1.7,0.1-3.1-1.2-3.1-2.8
					c-0.1-1.7,1.2-3.1,2.8-3.1c112.4-5.5,164.8-5.8,228.8,46.2c1.3,1,1.5,2.9,0.4,4.2C759.7,1248.1,758.8,1248.5,757.9,1248.5z"/>
			</g>
		</g>
	</g>
	<path class="st10" d="M3364.1,1767.5H262c-3.6,0-6.5-2.9-6.5-6.5s2.9-6.5,6.5-6.5h3102.1c3.6,0,6.5,2.9,6.5,6.5
		S3367.7,1767.5,3364.1,1767.5z"/>
	<g>
		<path class="st11" d="M1637.2,401.8c25.9,16.5,75.1,73.2,106.5,106.2s48.4,51.3,48.4,51.3l-387-9.3c0,0,21-15.2,40-43
			s25.4-53,78-89C1576,381.8,1611.9,385.7,1637.2,401.8z"/>
		<path class="st12" d="M1568,415c19,0,31,73,40,89s56.4,19,56.4,19v-30.2c0,0,8.6,22.7,14.6,37c17-10.8,39.5-23.8,61.5-25.3
			c2,1.1,40,40.3,40,40.3L1464,550c0,0-19-10-16-10s26.4-40,45.7-57.5S1568,415,1568,415z"/>
		<path class="st11" d="M1673,535.5c0,0,62-26.5,93-22s39,22,39,22H1673z"/>
	</g>
	<g>
		<g>
			<path class="st13" d="M2011.1,1667.4V1448h-508.2v219.4h-165.2c-30.7,0-55.5,24.9-55.5,55.5v13.5c0,10,8.1,18.1,18.1,18.1H2214
				c10,0,18.1-8.1,18.1-18.1v-13.5c0-30.7-24.9-55.5-55.5-55.5H2011.1z"/>
			<g>
				<polygon class="st14" points="1502.9,1598.4 2011.1,1559.2 2011.1,1466.8 1502.9,1472.2 				"/>
				<polygon class="st14" points="2011.1,1631.4 1502.9,1667.4 2011.1,1667.4 				"/>
			</g>
			<g>
				<path class="st13" d="M2524,1498.1H990.1c-15,0-27.2-12.2-27.2-27.2V557.1c0-15,12.2-27.2,27.2-27.2H2524
					c15,0,27.2,12.2,27.2,27.2V1471C2551.2,1485.9,2539,1498.1,2524,1498.1z"/>
				<path class="st15" d="M2482.1,1400.1H1032c-13.5,0-24.5-11-24.5-24.5V593.8c0-13.5,11-24.5,24.5-24.5h1450.1
					c13.5,0,24.5,11,24.5,24.5v781.8C2506.6,1389.2,2495.6,1400.1,2482.1,1400.1z"/>
			</g>
			<path class="st14" d="M1812.6,1466.8h-111.1c-6.1,0-11.1-5-11.1-11.1v-3.3c0-6.1,5-11.1,11.1-11.1h111.1c6.1,0,11.1,5,11.1,11.1
				v3.3C1823.7,1461.8,1818.7,1466.8,1812.6,1466.8z"/>
		</g>
		<g>
			<path class="st1" d="M2234.1,1066.6c-13.2-0.2-26.2,0.4-38.9,1.6c0.7-7.6,1.2-15.3,1.3-23c2.6-179.3-166.6-327.1-377.8-330.1
				c-173.2-2.5-320.8,93.1-369.9,226.5c-36.3-14.6-76.7-23.1-119.3-23.7c-160.9-2.3-293,107.6-294.9,245.5s126.9,251.6,287.8,253.9
				c108.8,1.6,813-2.1,906.8-0.8c136.8,2,248.8-79.6,250.2-174.5C2480.8,1147.1,2371,1068.6,2234.1,1066.6z"/>
			<path class="st16" d="M1812.1,735c2.1,0,4.2,0,6.3,0c49.3,0.7,97,9.6,141.8,26.4c43.1,16.2,81.6,38.9,114.4,67.7
				c32.6,28.5,58.1,61.5,75.6,98c18,37.5,26.9,77.1,26.3,117.8c-0.1,6.9-0.5,14.1-1.2,21.4l-2.3,24.1l24.1-2.3
				c10.6-1,21.3-1.5,31.9-1.5c1.6,0,3.2,0,4.8,0c31.5,0.5,62,5.2,90.6,14c27.3,8.4,51.7,20.3,72.5,35.1c40.8,29.2,63,66.8,62.5,106
				c-0.3,19.4-6,38.5-17.1,56.8c-11.1,18.4-27,35.1-47.3,49.7c-20.8,15-45,26.8-71.9,35.1c-28.3,8.7-58.2,13.2-89,13.2
				c-1.5,0-3,0-4.6,0c-14.2-0.2-42.7-0.3-87-0.3c-83,0-207.3,0.3-338.7,0.7c-135.2,0.4-275.1,0.8-371.2,0.8
				c-55.6,0-91.5-0.1-109.8-0.4c-37-0.5-72.8-7.2-106.3-20c-32.2-12.2-61.1-29.4-85.7-51.1c-24.4-21.5-43.4-46.4-56.5-73.9
				c-13.4-28.2-20-58-19.6-88.7c0.9-60.1,29-116.6,79.1-159c24.7-20.9,53.6-37.4,85.6-48.9c33.3-11.9,68.7-18,105.2-18
				c1.6,0,3.1,0,4.7,0c39.2,0.6,76.9,8,112.1,22.2l19.1,7.7l7.1-19.4c11.2-30.3,27.9-58.9,49.8-85c21.7-25.9,48-48.6,78.1-67.7
				c30.5-19.3,64.3-34.4,100.4-44.7C1733.2,740.4,1772.3,735,1812.1,735L1812.1,735z M1812.1,715c-170.3,0-314.9,94.9-363.3,226.5
				c-36.3-14.6-76.7-23.1-119.3-23.7c-1.7,0-3.3,0-5,0c-158.6,0-288,109.1-290,245.6c-2,137.9,126.9,251.6,287.8,253.9
				c19.6,0.3,58.7,0.4,110.1,0.4c187.7,0,539.8-1.5,710-1.5c41.2,0,71.7,0.1,86.7,0.3c1.6,0,3.2,0,4.8,0
				c134.6,0,244-80.7,245.4-174.5c1.4-94.9-108.4-173.4-245.3-175.4c-1.7,0-3.4,0-5.1,0c-11.5,0-22.7,0.6-33.8,1.6
				c0.7-7.6,1.2-15.3,1.3-23c2.6-179.3-166.6-327.1-377.8-330.1C1816.5,715,1814.3,715,1812.1,715L1812.1,715z"/>
		</g>
		<g>
			<polygon class="st6" points="2118.9,1400.1 1372.9,1400.1 1372.9,1100.4 1572.5,1030.6 1906.6,1030.6 2118.9,1100.4 			"/>
			<polygon class="st17" points="1572.5,1030.6 1372.9,1100.4 2118.9,1100.4 1906.6,1030.6 			"/>
			<polygon class="st6" points="1889.2,1074.4 1598.2,1074.4 1650.5,1046.3 1836.9,1046.3 			"/>
			<g>
				<path class="st18" d="M1846.1,1063.3h-201.9c-1.7,0-3-1.3-3-3s1.3-3,3-3h201.9c1.7,0,3,1.3,3,3S1847.7,1063.3,1846.1,1063.3z"/>
			</g>
			<path class="st17" d="M1924.7,1326.9h-365c-13.4,0-24.3-11-24.3-24.3v-62.9c0-13.4,11-24.3,24.3-24.3h365
				c13.4,0,24.3,11,24.3,24.3v62.9C1949,1316,1938.1,1326.9,1924.7,1326.9z"/>
		</g>
	</g>
	<g>
		<g>
			<path class="st19" d="M1615.7,793.3c10.6-16.2,109.2-45.1,116.3-44.4c7,0.7,58.2,115.6,68.9,160.7c10.7,45.1,12.1,52.1,12.1,52.1
				s-114.2,37.3-135.3,40.9c-21.1,3.5-21.1,3.5-21.1,3.5s-10.6-101.5-21.1-138.8C1624.9,830,1615.7,793.3,1615.7,793.3z"/>
			<g>
				<path class="st13" d="M1689.7,959.3c-1.1,0-2.1-0.7-2.4-1.8c-0.4-1.3,0.4-2.7,1.7-3.1l65.5-18.3c1.3-0.4,2.7,0.4,3.1,1.7
					s-0.4,2.7-1.7,3.1l-65.5,18.3C1690.2,959.3,1689.9,959.3,1689.7,959.3z"/>
			</g>
			<g>
				<path class="st13" d="M1686.2,950.2c-1.1,0-2.1-0.7-2.4-1.8c-0.4-1.3,0.4-2.7,1.7-3.1l63.4-18.3c1.3-0.4,2.7,0.4,3.1,1.7
					s-0.4,2.7-1.7,3.1l-63.4,18.3C1686.7,950.1,1686.4,950.2,1686.2,950.2z"/>
			</g>
			<g>
				<path class="st13" d="M1674.2,912.1c-1.1,0-2.1-0.7-2.4-1.8c-0.4-1.3,0.4-2.7,1.7-3.1l59.2-16.3c1.3-0.4,2.7,0.4,3.1,1.7
					s-0.4,2.7-1.7,3.1l-59.2,16.3C1674.7,912.1,1674.4,912.1,1674.2,912.1z"/>
			</g>
			<g>
				<path class="st13" d="M1674.2,904c-1.1,0-2.1-0.7-2.4-1.8c-0.4-1.3,0.4-2.7,1.7-3.1l59.2-16.5c1.3-0.4,2.7,0.4,3.1,1.7
					s-0.4,2.7-1.7,3.1l-59.2,16.5C1674.7,903.9,1674.4,904,1674.2,904z"/>
			</g>
			<g>
				<path class="st13" d="M1660.8,871.2c-1.1,0-2.1-0.7-2.4-1.8c-0.4-1.3,0.4-2.7,1.7-3.1l57.1-16.9c1.3-0.4,2.7,0.4,3.1,1.7
					s-0.4,2.7-1.7,3.1l-57.1,16.9C1661.3,871.2,1661.1,871.2,1660.8,871.2z"/>
			</g>
			<g>
				<path class="st13" d="M1660.8,862.8c-0.6,0-1.3-0.2-1.8-0.7c-1-1-1-2.6,0-3.5c0.6-0.6,1.9-1.9,54.6-16.8
					c1.3-0.4,2.7,0.4,3.1,1.7s-0.4,2.7-1.7,3.1c-18.9,5.4-49.7,14.4-52.8,15.8C1661.8,862.6,1661.3,862.8,1660.8,862.8z"/>
			</g>
			<g>
				<path class="st17" d="M1755.3,904.5c-0.2,0-0.5,0-0.7-0.1c-1.6-0.4-2.6-2-2.2-3.6l6.7-27.1c0.3-1,1-1.8,2-2.2
					c1-0.3,2.1-0.1,2.9,0.6l11.7,10.6c1.2,1.1,1.3,3,0.2,4.2c-1.1,1.2-3,1.3-4.2,0.2l-7.9-7.2l-5.5,22.2
					C1757.8,903.5,1756.6,904.5,1755.3,904.5z"/>
			</g>
		</g>
		<path class="st20" d="M1673.4,341.6l-52.7,49.7c-13.7,10.6-15.2,18.8-12.7,35.9c3.2,21.2,8.6,37.4,17.3,37.4
			c15,0,13.7-41.7,13.7-41.7l51.1-51.5L1673.4,341.6z"/>
		<path class="st21" d="M1673.4,341.6l-15.6,12.1c-6.8,20.1-9.4,43.5-8.8,59.2l41.1-41.4L1673.4,341.6z"/>
		<path class="st20" d="M1728.5,391.2c-11,21.5-30.1,39.4-44.8,35.6c-15.3-3.9-30.7-30.1-19.1-53.9c11.2-23.1,27.2-40.7,44.8-35.6
			C1727,342.3,1740.2,368.3,1728.5,391.2z"/>
		<path class="st20" d="M1640,705.4c18,27.3,34.7,46.7,40,67.3c5.3,20.7-8.7,52.7-17,42s-19.7-13.5-22.3-43.3
			c-3.3-37.3-16.7-42.5-16.7-42.5L1640,705.4z"/>
		<path class="st11" d="M1573,408.4c20,9.6,21,173.6,52,244.6s31.7,71.5,31.7,71.5s-26.8,15.7-32.6,18.4
			c-5.8,2.7-73.4-84.9-86.1-133.9c-23-88.5-45.5-102.5-71-106.5c4.5-13,29-43.5,58-68.5S1573,408.4,1573,408.4z"/>
		<path class="st20" d="M1728.8,529.8c0,0,18.3-13.8,34.4-11.8c16,2,47.5,16.5,41,21.5s-24.5,5.5-35.5,0S1731.3,527.3,1728.8,529.8z
			"/>
		<path class="st22" d="M1633.7,379.1c23-1.7,34.1-18.5,36.2-21s3.4,20,7.8,21.7c4.4,1.6,9.4-10.7,14.9-21.2s12.8-9.5,13.5,0
			s7.2,38.2,22.7,44.7c12.6,5.2,23.3,7.2,23.3,7.2s-3.8-20.1-2.3-37.3c2.3-28.3-22.3-52.3-41.7-55.7c-15.5-2.7-42.3-0.5-53.3,21.3
			C1644,359.7,1633.7,379.1,1633.7,379.1z"/>
		
			<ellipse transform="matrix(0.3123 -0.95 0.95 0.3123 803.1521 1836.4738)" class="st20" cx="1670" cy="363.5" rx="12.9" ry="9.1"/>
	</g>
	<g>
		<path class="st22" d="M2720.1,874.9c-13.2-10.2-77.7,15.8-79,39.6s17.7,74.5,59,78.1s46.2-1.1,49.7-33.7
			C2753.3,926.4,2738.4,889,2720.1,874.9z"/>
		<path class="st23" d="M2897.5,1679.1c0,0,29.3,12.1,24.6,18.4s9.4,42.1,9.4,42.1h-5.9l-11.1-23c0,0,4.7,27.9-5.3,32.2
			s-44.6,14.2-42.2,6.1c1.2-4.3,9.5-14.8,9.5-14.8L2897.5,1679.1z"/>
		<path class="st20" d="M2878.9,1684.3c5.1,14.1,0.4,53.4-6.6,61.1s21.7,0.6,27-6.5s3.9-53,3.9-53L2878.9,1684.3z"/>
		<path class="st23" d="M2559.6,1685.1c0,0,20.1,24.6,13,27.9s-11.7,41.5-11.7,41.5l-5.2-2.8l1.1-25.5c0,0-9.1,26.7-19.9,25.8
			c-10.8-0.9-49.3-3.2-40.1-14.7c2.8-3.5,14.5-7.8,14.5-7.8L2559.6,1685.1z"/>
		<path class="st20" d="M2540.7,1680.8c-2.2,14.9-25,47.2-34.8,50.6s18.8,10.8,26.8,7.1c8-3.7,28.6-44.8,28.6-44.8L2540.7,1680.8z"
			/>
		<path class="st20" d="M2695.7,1231.1c0,0,41.4,208.3,62.5,254.9c16,35.2,117.9,209.4,131.1,206.8c13.2-2.6,13.9-6.9,13.9-6.9
			s-38.9-138.7-59.7-167.3c-32.6-44.7-24.6-56.5-25.5-140.1s0-85.2-22-135.4c-22-50.2-22-50.2-22-50.2L2695.7,1231.1z"/>
		<path class="st20" d="M2695.7,1213.9c0,0-96.6,226.4-103.3,250.2c-6.7,23.8-53.3,225.3-53.3,225.3s10.8,9.3,19,8
			s81.3-140,83.2-184.9s90.4-138.2,101-177.8C2752.9,1295.1,2695.7,1213.9,2695.7,1213.9z"/>
		<path class="st6" d="M2886.2,1318.9c0,0,13.6,113.5,12.8,146.5c-0.9,33,0,37,0,37l122.3-18.9c0,0-16.3-60.9-22.4-76.7
			C2992.7,1391,2886.2,1318.9,2886.2,1318.9z"/>
		<path class="st1" d="M2889.8,1323c0,0,6.7,50.8,13.5,104.5s7.2,66.9,7.2,66.9l110.9-15.1L2889.8,1323z"/>
		<path class="st6" d="M2947,1315.1c-5.7,1.5-65.1,0-65.1,0s25.1,82.1,40,170.9c63.8-6.7,115.3-8.8,115.3-8.8s-27.6-89.8-41.7-120.6
			c-14.1-30.8-20.3-41.6-20.3-41.6L2947,1315.1L2947,1315.1z"/>
		<path class="st20" d="M2941.7,1271.7c0,0,14.1,24.3,16.7,40.6c2.6,16.3-0.9,48.4-8.4,48.4s-7.9-2.7-12.8-20.3
			c-4.8-17.5-7.5-24.2-7.5-24.2h-10.6v-46.6L2941.7,1271.7z"/>
		<path class="st24" d="M2778.9,1201.4c2.3,3,39.5,64.7,45.3,119.2c5.9,54.6,4.7,146.7,4.7,146.7l-29.4,5.9l-17.5-119.7l-7.6,119.7
			c0,0-32.9,11.7-78.6,2.9c-45.8-8.8-96.2-39.9-96.2-39.9l89.2-214.7L2778.9,1201.4z"/>
		<path class="st25" d="M2745.9,1007.3c0,0,44.9,14.7,49.3,35.1c3.9,18.1-11.3,132.6-14.8,158.3c-0.4,3.2-2.5,6-5.5,7.4
			c-14.3,6.6-57.2,25.3-79.2,23c-23.8-2.5-54-131.1-51-144.6c4.4-19.7,36.1-67.9,60.7-78.4C2730,997.6,2745.9,1007.3,2745.9,1007.3z
			"/>
		<path class="st20" d="M2715.1,941c0,0,15.4,58.7,24.2,62.3c8.8,3.5-24.2,54.3-43.6,52.9c-19.4-1.4,9.7-48,9.7-48l-19.3-59.5
			L2715.1,941z"/>
		<path class="st21" d="M2721.6,963.6c-4.7,18.6-11.1,27.3-19.2,35.4l-16.4-50.4l29-7.6C2715.1,941,2717.3,952.6,2721.6,963.6z"/>
		<path class="st20" d="M2650.4,927.7c-6.9,23.2-5.5,49.3,7.9,56.7c13.8,7.7,43-0.5,51.1-25.8c7.8-24.5,8.4-48.2-7.9-56.7
			C2685.2,893.4,2657.7,903,2650.4,927.7z"/>
		<path class="st1" d="M2417.5,919.2l24.1-68.8c0,0-98.8-79-152.6-87.7c-30.7-4.9-56.8,3-56.8,3l-50,94.7c0,0,90.7,10.4,126,39.2
			c35.2,28.8,72.4,63,72.4,63S2401.5,953.5,2417.5,919.2z"/>
		<path class="st20" d="M2444.5,935.6c0,0-19.9-20.2-24.6-28.6c-4.7-8.4-15.4-21.6-11.4-9.2c4,12.3,4.8,14.5,4,24.2
			c-0.9,9.7-7.9,13.6-7.9,13.6l32.6,17.2L2444.5,935.6z"/>
		<path class="st24" d="M2700.1,1008.1c0,0-141.7-7.1-154.9-13.2c-13.2-6.1-105.6-66.8-105.6-66.8s-15,19.8-15.8,20.5
			c-0.9,0.6,95.9,77.2,115.3,86.9c19.4,9.7,110,31.3,110,31.3s-16.7,88.7-23.8,109.7s-12.3,27.8-12.3,27.8s26.4,5.7,37.8-4.6
			c11.4-10.2,14.1-88,14.1-120.2C2664.9,1047.3,2700.1,1008.1,2700.1,1008.1z"/>
		<path class="st24" d="M2776.2,1016.1c0,0,31.2,10.2,62.5,40.1c31.2,29.9,76.6,70.6,85.4,94.2c8.8,23.6,22.9,126.1,22.9,126.1
			s-24.6,8.3-28.2,4.7c-3.5-3.7-27.7-93.4-40-108.8s-79.3-77.9-79.3-77.9l23.8,91.1c0,0-33.2,21.7-55.7,10.6s-32.4-40.2-47.3-75.8
			c-14.9-35.6,25.6-113,25.6-113L2776.2,1016.1z"/>
		<path class="st25" d="M2734.4,991.8c1.5,1.8,11.4,15.5,11.4,15.5s-19.9,41.4-28.9,48.9s-20.4,4.5-20.4,4.5s-24.7-10.2-19.7-19.5
			c9.9-18.4,23.2-33.1,23.2-33.1l3.1-6.8l2.2,6.8c0,0-4.1,5.9-7.3,14.4s-2.6,29.9-4.1,32.6c-1.5,2.6,4.1,0.6,7.6-10
			s4.4-26.1,4.4-26.1s15.5-8.8,20.8-15.3C2732.1,997.4,2734.4,991.8,2734.4,991.8z"/>
		<g>
			<g>
				<path class="st13" d="M2228.9,835.3c-0.4,0-0.9-0.1-1.3-0.4c-1.2-0.7-1.6-2.3-0.8-3.4l32.9-54.5c0.7-1.2,2.3-1.6,3.4-0.8
					c1.2,0.7,1.6,2.3,0.8,3.4l-32.9,54.5C2230.6,834.8,2229.8,835.3,2228.9,835.3z"/>
			</g>
			<g>
				<path class="st13" d="M2298,846.5c-0.5,0-0.9-0.1-1.4-0.4c-1.2-0.8-1.5-2.3-0.7-3.5l30.4-46.5c0.8-1.2,2.3-1.5,3.5-0.7
					s1.5,2.3,0.7,3.5l-30.4,46.5C2299.7,846.1,2298.9,846.5,2298,846.5z"/>
			</g>
			<g>
				<path class="st13" d="M2340.5,864.3c-0.2,0-0.5,0-0.7-0.1c-1.3-0.4-2.1-1.8-1.7-3.1c0.1-0.4,0.3-1.1,23.7-40.4
					c0.7-1.2,2.2-1.6,3.4-0.9c1.2,0.7,1.6,2.2,0.9,3.4c-8.9,14.9-22.4,37.7-23.3,39.5C2342.5,863.7,2341.5,864.3,2340.5,864.3z"/>
			</g>
			<g>
				<path class="st13" d="M2248.6,837.7c-0.4,0-0.9-0.1-1.3-0.3c-1.2-0.7-1.6-2.2-0.9-3.4l32.2-55.2c0.7-1.2,2.2-1.6,3.4-0.9
					c1.2,0.7,1.6,2.2,0.9,3.4l-32.2,55.2C2250.3,837.3,2249.4,837.7,2248.6,837.7z"/>
			</g>
			<g>
				<path class="st13" d="M2286.7,841.6c-0.5,0-0.9-0.1-1.3-0.4c-1.2-0.7-1.5-2.3-0.8-3.4c1.1-1.8,27-43.6,29.4-46.8
					c0.8-1.1,2.4-1.4,3.5-0.5c1.1,0.8,1.4,2.4,0.5,3.5c-1.8,2.5-19.9,31.5-29.2,46.5C2288.4,841.2,2287.6,841.6,2286.7,841.6z"/>
			</g>
			<g>
				<path class="st17" d="M2308.6,891.9c-1.4,0-2.7-1-3-2.5c-0.3-1.6,0.8-3.2,2.4-3.5l14.1-2.4l-13.2-27.1c-0.7-1.5-0.1-3.3,1.4-4
					s3.3-0.1,4,1.4l14.9,30.7c0.4,0.8,0.4,1.8,0,2.7c-0.4,0.8-1.2,1.4-2.2,1.6l-18.1,3.1C2309,891.9,2308.8,891.9,2308.6,891.9z"/>
			</g>
			<g>
				<path class="st13" d="M2331.8,857.6c-0.4,0-0.9-0.1-1.3-0.4c-1.2-0.7-1.6-2.3-0.8-3.4l22.7-37.5c0.7-1.2,2.3-1.6,3.4-0.8
					c1.2,0.7,1.6,2.3,0.8,3.4l-22.7,37.5C2333.5,857.1,2332.7,857.6,2331.8,857.6z"/>
			</g>
			<g>
				<path class="st13" d="M2372,896.5c-0.4,0-0.9-0.1-1.2-0.3c-1.2-0.7-1.6-2.2-0.9-3.4l25.4-44c0.7-1.2,2.2-1.6,3.4-0.9
					c1.2,0.7,1.6,2.2,0.9,3.4l-25.4,44C2373.7,896,2372.9,896.5,2372,896.5z"/>
			</g>
			<g>
				<path class="st13" d="M2389.5,901.4c-0.4,0-0.8-0.1-1.2-0.3c-1.2-0.7-1.6-2.2-0.9-3.4l21.6-38.3c0.7-1.2,2.2-1.6,3.4-0.9
					c1.2,0.7,1.6,2.2,0.9,3.4l-21.6,38.3C2391.2,900.9,2390.3,901.4,2389.5,901.4z"/>
			</g>
		</g>
		<path class="st22" d="M2646.4,916.2c11.9,24.2,65,22.6,64.6,25.8s9.7,50,21.6,49.7c11.9-0.3-11.1-97.5-11.1-97.5l-49.2,2.2
			L2646.4,916.2z"/>
		<path class="st22" d="M2743.5,911.1c19.9-8.1,23.4-5,30,5.5c6.6,10.6,14.1,14.7,12.8,24.3s0.9,19.4-3.1,29s-17.6,10.5-29,16.2
			s-16.9-11-16.9-11L2743.5,911.1z"/>
		
			<ellipse transform="matrix(0.2356 -0.9718 0.9718 0.2356 1153.6217 3360.7961)" class="st20" cx="2713.3" cy="947" rx="13.5" ry="9.2"/>
	</g>
	<g>
		<path class="st26" d="M998.4,1707.9c0,0,6.4,24.8,28.2,31c21.8,6.3,43.1,18.4,12.4,18.8c-33.6,0.4-52.9-1.2-66.8-3.5
			c-14-2.3-4.8-27-2.6-38.7C971.8,1703.8,998.4,1707.9,998.4,1707.9z"/>
		<path class="st26" d="M820.6,1687.8c0,0-4.7,49.4,7.2,53.7c11.9,4.2,25.5,14.4,8.5,14.4s-38,4-43.5-14.4
			c-6.7-22.5-21.9-26.3-16.5-37.7c5.4-11.5,21.7-32.7,21.7-32.7L820.6,1687.8z"/>
		<path class="st27" d="M1047.8,1172.1l-43.2,546.3c0,0-22.4,10.4-38.6,11.9c-16.2,1.6-49.6-261.8-46.7-303.9
			c2.8-42.1-29.2-175.8-21.8-219.2C905,1163.9,1047.8,1172.1,1047.8,1172.1z"/>
		<path class="st26" d="M961.5,1175c3-0.4,6.1-0.8,9.2-1.1l74.6,28.8l-13.8,161.1c-35.7,78.5-78.5,152.7-100,200.6
			c-9.8-57-13.5-118.4-12.2-138c1.4-20.3-5.4-61.8-11.9-104.3L961.5,1175z"/>
		<path class="st27" d="M1026.6,1254.7c-41.8,186-206.4,445.6-206.2,445.6s-30.7-5.3-32.3-19.4s17.7-187.1,59.5-227.8
			c41.8-40.7,44.7-234,44.7-234L1026.6,1254.7z"/>
		<path class="st28" d="M927.9,994.7c-47.1,47.3-77.2,128.7-77.7,148.9c-0.4,20.1,54.3,56.1,54.3,56.1L927.9,994.7z"/>
		<polygon class="st20" points="980.9,890.2 962.2,982.9 1013.2,1037.8 1020,925.4 		"/>
		<path class="st2" d="M962.2,954c0,0-24,8.4-50.8,76.4c-26.8,67.9-45.3,235.3-45.3,235.3s51.4,43.7,125,43.6
			c46.9,0,70.6-10.6,70.6-10.6s4.7-157.8,0-214.7C1057,1027.1,985.5,952.6,962.2,954z"/>
		<path class="st28" d="M1061.7,1084.1c-4.7-56.9-76.2-131.5-99.5-130c0,0-10,3.5-24.2,24.1c24-11.7,54,8.7,82,74.7
			c14,33,28.9,80.5,43.7,90.9C1063.5,1120.1,1062.9,1098.7,1061.7,1084.1z"/>
		<path class="st21" d="M1000.4,968.3c-15.1-17.6-20.8-44.6-22.8-61.8l2.9-14.7l3.8,1.5l35.6,32l-3.5,57.9
			C1011.5,979.7,1006.1,974.8,1000.4,968.3z"/>
		<path class="st20" d="M992.5,910.6c5.9,27.6,31.3,42.9,52.4,38.4c21.1-4.5,25.7-31.2,19.9-58.8c-5.9-27.6-23.5-42.1-44.6-37.6
			C999,857,986.7,883,992.5,910.6z"/>
		<path class="st2" d="M969.4,933.1l-16,27l84.6,63.3c0,0-6.4-29.3-8.1-40.1C1028.3,972.4,970.8,930.8,969.4,933.1z"/>
		<path class="st29" d="M1069.7,833.8c35.5,11.2,6.5,56-4.9,56.4s-15.6-10.2-25-7.8c-9.4,2.5-18.2-14.2-24-10.6
			c-5.7,3.6-2.1,37.5,0,43.2s-7.3,6.3-7.3,6.3s-3.8-24-9.7-22.4s-10.3,18.2-18.8,22.4s-8.5,4.2-8.5,4.2s-5.2-36.2-13-43.1
			c-7.8-6.9-2.9-30.9,8.2-35.6c11.1-4.7,13.8-26.1,29.1-27.6c15.3-1.6,27.8,8.9,48.2,6.3C1064.3,822.9,1059.7,830.7,1069.7,833.8z"
			/>
		
			<ellipse transform="matrix(0.9203 -0.3911 0.3911 0.9203 -273.2779 460.04)" class="st20" cx="992.7" cy="900.9" rx="10" ry="13.5"/>
		<path class="st28" d="M944.9,1004.5c0,0,87.2,97,118.6,127c0.4,27.9,0.2,60.5-0.2,89.4c-17-8.4-64.3-32.8-91.2-58.8
			C938.9,1130,924.1,1056.6,944.9,1004.5z"/>
		<path class="st19" d="M1201.3,1132.2c5.8-35.8,70.7-140.1,95.3-152.1c13.5-6.6,135.7,14,135.7,14s-138.6,120.3-156.4,184.8
			c-15.9,57.6-14,79.4-14,79.4l-56-40.9C1206,1217.4,1192.7,1186.1,1201.3,1132.2z"/>
		<path class="st20" d="M1186,1131.4c0,0,20.9-25.8,29.2-23.3c8.3,2.5,11.5,2.9,18.8,2.5s7.8,10.1-2.6,29.1s-38.6,22.8-45.3,22.4
			C1179.2,1161.8,1186,1131.4,1186,1131.4z"/>
		<path class="st2" d="M954.7,983.2c-33.7,9-22.8,94.5-3.7,129.8c13.7,25.4,59.3,51.2,87.2,58.5c27.9,7.3,148.8-7.8,148.8-7.8
			s4.5-39.9-4-39.9s-108.3-2.3-135.1-26.6C1021,1073,995.4,972.4,954.7,983.2z"/>
		<g>
			<path class="st19" d="M1206,1130.8c-9-5.8,11.8-38.9,11.8-38.9h24c0,0-7.7,9.1-19,18.2S1206,1130.8,1206,1130.8z"/>
			<g>
				<path class="st13" d="M1372.4,1027.9c-0.2,0-0.3,0-0.5,0l-57.1-10.8c-1.4-0.3-2.2-1.6-2-2.9c0.3-1.4,1.6-2.3,2.9-2l57.1,10.8
					c1.4,0.3,2.2,1.6,2,2.9C1374.7,1027,1373.6,1027.9,1372.4,1027.9z"/>
			</g>
			<g>
				<path class="st13" d="M1343.9,1058.9c-0.3,0-0.6,0-0.9-0.2l-45.1-16.6c-1.3-0.5-2-1.9-1.5-3.2c0.5-1.3,1.9-2,3.2-1.5l45.1,16.6
					c1.3,0.5,2,1.9,1.5,3.2C1345.9,1058.3,1344.9,1058.9,1343.9,1058.9z"/>
			</g>
			<g>
				<path class="st13" d="M1335.6,1067.6c-0.3,0-0.6,0-0.9-0.2c-13.7-5-40.2-14.6-42.5-15.3c-1.3-0.4-2.1-1.8-1.7-3.1
					c0.4-1.3,1.8-2.1,3.1-1.7c2.9,0.9,41.1,14.8,42.7,15.3c1.3,0.5,2,1.9,1.5,3.2C1337.6,1067,1336.6,1067.6,1335.6,1067.6z"/>
			</g>
			<g>
				<path class="st13" d="M1303.1,1105.7c-0.3,0-0.7-0.1-1-0.2c-13.6-5.8-36.1-15.1-38.5-15.6c-1.4-0.3-2.2-1.6-2-2.9
					c0.3-1.4,1.6-2.2,2.9-2c3.7,0.7,33.5,13.4,39.5,15.9c1.3,0.5,1.9,2,1.3,3.3C1305,1105.1,1304.1,1105.7,1303.1,1105.7z"/>
			</g>
			<g>
				<path class="st13" d="M1298.8,1113.8c-0.3,0-0.6-0.1-1-0.2l-38.3-16c-1.3-0.5-1.9-2-1.3-3.3c0.5-1.3,2-1.9,3.3-1.3l38.3,16
					c1.3,0.5,1.9,2,1.3,3.3C1300.7,1113.2,1299.8,1113.8,1298.8,1113.8z"/>
			</g>
			<g>
				<path class="st13" d="M1381.4,1018.5c-0.2,0-0.3,0-0.5,0l-60-11.3c-1.4-0.3-2.3-1.6-2-2.9c0.3-1.4,1.6-2.3,2.9-2l60,11.3
					c1.4,0.3,2.3,1.6,2,2.9C1383.6,1017.7,1382.5,1018.5,1381.4,1018.5z"/>
			</g>
			<g>
				<path class="st13" d="M1275.5,1139.3c-0.3,0-0.6-0.1-1-0.2l-27.4-11.3c-1.3-0.5-1.9-2-1.4-3.3s2-1.9,3.3-1.4l27.4,11.3
					c1.3,0.5,1.9,2,1.4,3.3C1277.4,1138.7,1276.4,1139.3,1275.5,1139.3z"/>
			</g>
			<g>
				<path class="st13" d="M1270.2,1151.1c-0.4,0-0.7-0.1-1-0.2l-25.5-11.8c-1.3-0.6-1.8-2.1-1.2-3.3c0.6-1.3,2.1-1.8,3.3-1.2
					l25.5,11.8c1.3,0.6,1.8,2.1,1.2,3.3C1272,1150.5,1271.1,1151.1,1270.2,1151.1z"/>
			</g>
			<g>
				<path class="st13" d="M1256,1195.4c-0.3,0-0.7-0.1-1-0.2l-34.9-15.6c-1.3-0.6-1.8-2-1.3-3.3c0.6-1.3,2-1.8,3.3-1.3l34.9,15.6
					c1.3,0.6,1.8,2,1.3,3.3C1257.8,1194.8,1256.9,1195.4,1256,1195.4z"/>
			</g>
			<g>
				<path class="st13" d="M1250.7,1206c-0.3,0-0.7-0.1-1-0.2c-31.7-14-32.4-14.5-32.6-14.6c-1.1-0.8-1.5-2.3-0.7-3.5
					c0.7-1.1,2.2-1.4,3.3-0.8c1.4,0.7,19.9,8.9,32,14.3c1.3,0.6,1.8,2,1.3,3.3C1252.6,1205.4,1251.6,1206,1250.7,1206z"/>
			</g>
			<g>
				<path class="st17" d="M1261.7,1047.9c-0.6,0-1.2-0.2-1.8-0.6c-0.9-0.7-1.4-1.8-1.2-2.9l2.4-16.1c0.2-1.6,1.8-2.8,3.4-2.5
					c1.6,0.2,2.8,1.8,2.5,3.4l-1.6,10.4l30.2-15c1.5-0.7,3.3-0.1,4,1.4s0.1,3.3-1.4,4l-35.4,17.6
					C1262.7,1047.8,1262.2,1047.9,1261.7,1047.9z"/>
			</g>
		</g>
	</g>
</g>
</svg>
